<svg width="64" height="64" viewBox="0 0 64 64" fill="none" xmlns="http://www.w3.org/2000/svg">
  <defs>
    <linearGradient id="bg-grad" x1="0%" y1="0%" x2="100%" y2="100%">
      <stop offset="0%" stop-color="#10b981" />
      <stop offset="50%" stop-color="#14b8a6" />
      <stop offset="100%" stop-color="#0ea5e9" />
    </linearGradient>
  </defs>

  <!-- Main Background Square -->
  <rect x="4" y="4" width="56" height="56" rx="14" fill="url(#bg-grad)" />

  <!-- Brain Icon -->
  <g transform="translate(20, 20)" stroke="#ffffff" stroke-width="2" stroke-linecap="round" stroke-linejoin="round" fill="none">
    <path d="M12 5a3 3 0 1 0-5.997.125 4 4 0 0 0-2.526 5.77 4 4 0 0 0 .556 6.588A4 4 0 1 0 12 18Z" />
    <path d="M12 5a3 3 0 1 1 5.997.125 4 4 0 0 1 2.526 5.77 4 4 0 0 1-.556 6.588A4 4 0 1 1 12 18Z" />
    <path d="M15 13a4.5 4.5 0 0 1-3-4 4.5 4.5 0 0 1-3 4" />
    <path d="M17.599 6.5a3 3 0 0 0 .399-1.375" />
    <path d="M6.003 5.125A3 3 0 0 0 6.401 6.5" />
    <path d="M3.477 10.896a4 4 0 0 1 .585-.396" />
    <path d="M19.967 10.5a4 4 0 0 1 .585.396" />
    <path d="M6 18a4 4 0 0 1-1.967-.516" />
    <path d="M19.967 17.484A4 4 0 0 1 18 18" />
  </g>

  <!-- Green Dot -->
  <circle cx="56" cy="56" r="6" fill="#34d399" stroke="#020617" stroke-width="2.5" />
</svg>
